<svg version="1.1" id="Layer_1" xmlns="http://www.w3.org/2000/svg" xmlns:xlink="http://www.w3.org/1999/xlink" x="0px" y="0px"
	 width="100%" viewBox="0 0 222 251" enable-background="new 0 0 222 251" xml:space="preserve">
<path fill="#081736" opacity="1.000000" stroke="none" 
	d="
M1.000000,72.000000 
	C1.000000,71.250000 1.000000,70.500000 1.443453,69.517059 
	C1.973439,68.893028 2.059973,68.501953 2.146507,68.110870 
	C1.764338,68.073914 1.382169,68.036957 1.000000,68.000000 
	C1.000000,63.975456 1.000000,59.950912 1.400290,55.983162 
	C2.348190,54.992744 2.895801,53.945530 3.443412,52.898315 
	C2.628941,52.932213 1.814471,52.966106 1.000000,53.000000 
	C1.000000,48.643101 1.000000,44.286201 1.401009,39.985039 
	C2.351206,38.992695 2.900393,37.944611 3.449581,36.896523 
	C2.633054,36.931015 1.816527,36.965508 1.000000,37.000000 
	C1.000000,35.611111 1.000000,34.222221 1.378430,33.004738 
	C2.186334,32.994755 2.615809,32.813370 3.350549,32.413528 
	C3.615608,31.416979 3.575400,30.638882 3.655676,29.464655 
	C3.695632,22.013809 3.615105,14.959093 3.646707,7.540123 
	C5.265566,6.448634 6.770654,5.089992 8.279263,5.086071 
	C51.232288,4.974431 94.186508,4.842268 137.138626,5.071164 
	C157.028488,5.177158 173.592270,13.285248 186.722305,28.142111 
	C196.060272,38.708199 201.362183,51.266750 203.722809,65.535622 
	C203.707352,70.990097 203.785477,75.990524 203.692795,81.338844 
	C203.182190,84.205925 202.842407,86.725128 202.293182,89.534927 
	C202.002548,90.524681 201.921341,91.223846 201.631989,92.211670 
	C196.840408,101.886978 192.256958,111.273621 187.474396,121.068016 
	C187.282684,120.798790 187.496353,121.288361 187.866043,121.580444 
	C188.770523,122.295059 189.745834,122.920219 190.694824,123.578224 
	C201.480759,131.056839 208.620392,141.445496 213.619110,153.297333 
	C215.884293,158.668030 217.038925,164.507126 218.617584,170.588348 
	C218.369553,177.695923 218.201294,184.348892 217.878601,191.358688 
	C217.354889,193.755341 216.985626,195.795166 216.277283,197.929108 
	C215.352737,199.685074 214.767258,201.346909 214.104584,203.390747 
	C213.105408,205.705688 212.206207,207.649857 211.257980,209.569809 
	C200.466263,231.420395 183.785217,245.298553 158.771011,247.864929 
	C158.114838,247.383270 157.664612,247.041489 157.213715,247.040634 
	C140.174606,247.008347 123.135254,246.976883 106.096733,247.078491 
	C105.077652,247.084564 104.065125,248.189056 102.634552,248.667755 
	C102.067421,242.371597 101.915283,236.190140 101.849358,229.576447 
	C101.879829,227.093140 101.824104,225.042038 101.855209,222.571579 
	C102.281441,220.053223 102.620850,217.954239 103.250305,216.163651 
	C104.007256,216.626358 104.473755,216.914215 104.941116,216.915634 
	C119.874687,216.960724 134.808533,217.010941 149.741638,216.931152 
	C150.822281,216.925385 151.897720,215.943253 153.343719,215.255005 
	C164.835434,213.563477 173.380371,207.442337 179.494339,198.616943 
	C187.524567,187.025497 188.205154,174.198837 181.537308,161.695862 
	C174.805786,149.073502 163.706024,142.686340 149.451828,142.208313 
	C138.972412,141.856903 128.477356,141.971909 117.982376,141.515213 
	C113.198997,137.105972 108.433167,133.047791 103.619942,129.046631 
	C103.327591,128.803619 102.658875,129.013336 102.075058,128.551117 
	C101.985809,121.683754 101.986771,115.277672 102.403000,108.816200 
	C110.887840,108.561798 118.957413,108.362801 127.343025,108.292389 
	C128.097168,108.335037 128.535278,108.249077 129.383057,108.309402 
	C132.539627,108.332771 135.286514,108.209854 138.453918,108.195572 
	C148.938324,107.666809 157.092468,103.469162 163.422516,95.121696 
	C165.315353,91.997040 166.902252,89.051277 168.696915,85.834167 
	C169.459091,83.027451 170.013519,80.492096 170.709106,77.553986 
	C170.789276,74.664726 170.728302,72.178215 170.738144,69.289131 
	C170.161423,66.604263 169.513885,64.321968 168.848083,61.676819 
	C167.009460,58.130722 165.494110,54.718830 163.311447,51.807178 
	C156.809982,43.134346 147.525955,39.709846 136.934845,38.305836 
	C135.467422,38.180351 134.182877,38.416172 132.453308,38.777878 
	C127.049644,38.821033 122.091011,38.738300 116.902740,38.267036 
	C111.076576,38.129524 105.480034,38.380539 99.458710,38.757607 
	C96.387627,38.802429 93.741325,38.721199 90.956024,38.327667 
	C90.184601,38.223995 89.552185,38.432617 88.472015,38.768414 
	C79.677666,38.815479 71.331078,38.735374 62.868149,38.332634 
	C60.839619,38.217308 58.927437,38.424618 56.570744,38.758671 
	C52.745056,38.808964 49.363873,38.732517 45.847290,38.309475 
	C42.083424,37.326092 38.473488,36.422386 34.818439,36.168785 
	C33.075970,36.047886 31.027855,37.100666 33.988911,39.472099 
	C33.993645,66.795494 33.975002,93.650536 34.055470,120.505280 
	C34.061043,122.366539 34.804058,124.225586 35.074371,126.403793 
	C24.842400,134.160751 14.740192,141.599594 5.611411,148.321625 
	C2.289282,148.196899 6.329978,142.260345 1.000000,145.000000 
	C1.000000,143.611115 1.000000,142.222214 1.309920,140.922516 
	C2.325135,140.034012 3.634460,139.061493 3.642843,138.077896 
	C3.732481,127.560738 3.616252,117.041817 3.684510,106.379318 
	C3.124640,104.356064 5.415179,100.876793 1.000000,101.000000 
	C1.000000,97.307091 1.000000,93.614182 1.302137,89.967285 
	C2.270845,89.717087 3.511794,89.433846 3.518818,89.122742 
	C3.647846,83.407936 3.652641,77.689323 3.540043,71.974350 
	C3.536268,71.782692 2.031042,71.620613 1.150827,71.576073 
	C1.075973,71.707397 1.000000,72.000000 1.000000,72.000000 
M115.678528,7.477251 
	C115.877007,7.465242 116.075478,7.453234 116.273956,7.441225 
	C116.141388,7.383063 116.008812,7.324903 115.678528,7.477251 
M16.678793,7.477227 
	C16.877102,7.465244 17.075413,7.453262 17.273722,7.441279 
	C17.141268,7.383167 17.008816,7.325056 16.678793,7.477227 
z"/>
<path fill="#FDFEFE" opacity="1.000000" stroke="none" 
	d="
M101.987732,108.871597 
	C101.986771,115.277672 101.985809,121.683754 101.991264,128.879623 
	C102.052422,130.114853 102.107162,130.560287 102.069382,131.332214 
	C101.908562,132.103607 101.840271,132.548538 101.571548,132.994110 
	C101.371124,132.994781 100.970688,133.013367 100.728874,133.008652 
	C100.487061,133.003937 100.003357,133.000000 100.002518,132.531357 
	C100.001671,124.606392 100.001671,117.150070 100.001671,109.693756 
	C99.510956,109.667252 99.020241,109.640755 98.529533,109.614250 
	C98.351295,110.742729 98.173050,111.871216 97.619186,113.047844 
	C95.976402,113.287613 94.547905,113.954269 93.470131,113.588249 
	C88.915169,112.041344 88.040047,114.226257 87.854622,118.158051 
	C87.792374,119.478004 86.085510,120.720406 85.035469,121.671371 
	C82.496536,118.797401 81.222939,120.665504 79.677200,122.826744 
	C76.844147,124.924118 74.316437,126.853607 71.455750,128.867950 
	C66.417839,132.403351 61.712898,135.853897 56.794228,139.326065 
	C56.302601,139.493805 56.147560,139.723053 55.773632,140.162460 
	C54.372650,142.323837 52.441795,144.338654 52.395748,146.395676 
	C52.098679,159.666550 52.242085,172.946762 52.185650,186.223679 
	C52.116550,202.479996 51.993240,218.736084 51.564350,234.997757 
	C50.668095,235.369003 50.100857,235.734741 49.533619,236.100494 
	C50.323036,236.402710 51.112453,236.704926 52.009941,237.373749 
	C52.253319,238.486618 52.388630,239.232880 52.401794,240.371918 
	C52.370167,242.873840 52.460682,244.982971 52.477158,247.368774 
	C52.487133,247.816879 52.571140,247.988327 52.854248,248.511780 
	C54.366028,248.880249 55.678719,248.896683 57.454105,248.994308 
	C64.280167,249.186188 70.643524,249.296890 76.929688,249.747803 
	C76.568329,250.725342 76.284164,251.362671 76.000000,252.000000 
	C50.999996,252.000000 25.999992,252.000000 1.000000,252.000000 
	C1.000000,250.311615 1.000000,248.655273 1.256318,246.010437 
	C4.546175,250.146835 9.555169,249.092636 14.230347,249.092255 
	C17.201113,249.092010 20.171873,249.111572 23.142645,249.114471 
	C27.351244,249.118561 31.559853,249.115494 35.770519,249.115494 
	C36.032993,245.098038 36.236649,241.980835 36.832024,238.898651 
	C37.969330,238.709625 38.714916,238.485565 39.460506,238.261505 
	C39.429573,237.995453 39.398643,237.729401 39.367714,237.463348 
	C38.391037,237.353531 37.414360,237.243729 36.342594,236.718918 
	C36.213020,232.313705 36.167404,228.323532 36.145897,224.333237 
	C36.028522,202.558914 35.917084,180.784561 35.901463,158.750504 
	C36.000885,158.305786 36.002441,158.120758 35.945297,157.776291 
	C35.596508,157.590332 35.306423,157.563828 34.990486,157.691055 
	C34.964630,157.844803 35.027401,158.150223 34.694748,158.106049 
	C32.658726,159.077545 30.955362,160.093231 28.852053,161.076675 
	C27.340263,161.762604 26.228418,162.480789 25.102074,163.153717 
	C25.087574,163.108475 25.179482,163.132660 24.793903,163.101868 
	C23.284061,164.134781 22.159798,165.198502 20.900333,166.545685 
	C19.480541,167.881302 18.195951,168.933456 16.727932,170.047333 
	C16.306664,170.236649 16.137947,170.425858 15.814392,170.946075 
	C13.490376,172.786346 11.576489,174.751114 9.253022,175.849426 
	C3.753601,178.449066 2.825914,182.684860 3.990892,188.434021 
	C3.840270,191.167969 3.904230,193.476318 3.732170,195.766937 
	C3.595117,197.591507 3.123568,199.290100 1.000000,197.000000 
	C1.000000,179.979111 1.000000,162.958206 1.000000,145.468658 
	C6.329978,142.260345 2.289282,148.196899 5.611411,148.321625 
	C14.740192,141.599594 24.842400,134.160751 35.394417,126.146759 
	C35.944218,121.750183 36.115524,117.929100 36.132549,114.107323 
	C36.238544,90.308746 36.309998,66.510010 36.777824,42.780251 
	C37.910282,42.597153 38.657818,42.345127 39.405350,42.093105 
	C39.349888,41.824127 39.294430,41.555145 39.238968,41.286167 
	C38.289242,41.286167 37.339520,41.286167 36.290695,41.024902 
	C36.202400,40.205830 36.213203,39.648026 36.577499,39.073448 
	C39.948227,38.923134 42.965458,38.789600 45.982693,38.656067 
	C49.363873,38.732517 52.745056,38.808964 56.985451,38.875313 
	C59.557941,38.795227 61.271217,38.725250 62.984497,38.655273 
	C71.331078,38.735374 79.677666,38.815479 88.829094,38.878082 
	C90.120972,38.787045 90.608002,38.713505 91.095032,38.639969 
	C93.741325,38.721199 96.387627,38.802429 99.923920,38.869431 
	C106.253395,38.788651 111.692886,38.722107 117.132370,38.655563 
	C122.091011,38.738300 127.049644,38.821033 132.865799,38.892113 
	C134.854782,38.809349 135.986252,38.738243 137.117722,38.667137 
	C147.525955,39.709846 156.809982,43.134346 163.311447,51.807178 
	C165.494110,54.718830 167.009460,58.130722 168.549561,61.854424 
	C164.977966,68.466965 165.315536,69.494118 170.667328,69.691704 
	C170.728302,72.178215 170.789276,74.664726 170.331390,77.562431 
	C166.236313,79.632866 165.554718,83.821091 168.489151,86.105515 
	C166.902252,89.051277 165.315353,91.997040 163.391113,94.744926 
	C162.634094,91.844368 161.814484,91.601982 159.640182,93.494339 
	C154.851105,97.662407 151.201370,102.476227 143.486084,103.597069 
	C136.065430,104.675110 128.879028,104.556763 121.566086,104.693382 
	C115.846794,104.800224 110.126915,104.947937 104.414497,105.225731 
	C103.914207,105.250053 103.467583,106.377968 102.761581,107.154114 
	C102.347336,107.833824 102.167534,108.352715 101.987732,108.871597 
z"/>
<path fill="#FDFDFD" opacity="1.000000" stroke="none" 
	d="
M85.130348,121.998245 
	C86.085510,120.720406 87.792374,119.478004 87.854622,118.158051 
	C88.040047,114.226257 88.915169,112.041344 93.470131,113.588249 
	C94.547905,113.954269 95.976402,113.287613 97.614075,113.415840 
	C96.841171,115.605507 95.697754,117.475319 94.438278,119.534912 
	C95.213448,121.189026 96.106415,123.094513 96.626572,124.992798 
	C94.768822,124.474106 93.283882,123.962631 91.786613,123.446907 
	C89.912552,130.850342 91.237915,132.834351 97.988899,133.371216 
	C97.662239,134.635925 97.262123,135.509415 97.037453,136.425903 
	C96.633591,138.073349 96.335014,139.746597 95.992455,141.409073 
	C97.995010,141.606583 99.997574,141.804092 102.440285,142.069412 
	C105.249741,142.052872 107.619034,141.968491 110.424988,141.979523 
	C113.237518,142.009644 115.613403,141.944351 117.989281,141.879074 
	C128.477356,141.971909 138.972412,141.856903 149.451828,142.208313 
	C163.706024,142.686340 174.805786,149.073502 181.537308,161.695862 
	C188.205154,174.198837 187.524567,187.025497 179.494339,198.616943 
	C173.380371,207.442337 164.835434,213.563477 152.882446,215.180817 
	C148.576508,215.302795 145.099960,215.333420 141.623550,215.375946 
	C128.735764,215.533600 115.848015,215.695160 102.960251,215.855255 
	C102.620850,217.954239 102.281441,220.053223 101.503120,222.459045 
	C100.455345,220.731094 99.846489,218.696274 99.237633,216.661469 
	C98.824699,216.660934 98.411774,216.660400 97.998848,216.659866 
	C97.998848,218.660370 98.128517,220.670944 97.974129,222.659454 
	C97.540146,228.249222 99.738640,234.344086 94.734367,239.136765 
	C94.260780,239.590302 94.882301,241.628677 95.474518,242.654724 
	C96.469772,244.379105 97.850044,245.881241 100.000000,248.697113 
	C100.000000,243.034271 99.845322,238.798050 100.080833,234.583603 
	C100.167534,233.032120 101.175430,231.532135 101.763153,230.008667 
	C101.915283,236.190140 102.067421,242.371597 103.057098,248.801056 
	C104.946129,249.469131 105.997620,249.889221 107.049118,250.309296 
	C106.699409,250.872864 106.349701,251.436432 106.000000,252.000000 
	C96.312439,252.000000 86.624878,252.000000 76.468658,252.000000 
	C76.284164,251.362671 76.568329,250.725342 77.327011,249.654297 
	C80.380455,248.580322 85.194176,251.210678 84.085251,244.556122 
	C84.130653,240.403702 84.061325,236.700516 84.070915,232.548935 
	C84.099663,229.067657 84.049500,226.034775 84.114227,222.584244 
	C84.157700,220.444809 84.086296,218.723022 84.096146,216.556824 
	C84.126900,213.407272 84.076378,210.702118 84.141342,207.554642 
	C84.171364,204.074722 84.085915,201.037125 84.079956,197.536545 
	C84.110573,187.381790 84.061707,177.689987 84.126709,167.541199 
	C84.152794,158.055573 84.064995,149.026947 84.055832,139.566010 
	C84.095177,137.087555 84.055908,135.041397 84.134399,132.604004 
	C84.347885,131.131470 84.443611,130.050156 84.693146,128.619537 
	C84.941422,126.179573 85.035889,124.088905 85.130348,121.998245 
z"/>
<path fill="#FCFCFD" opacity="1.000000" stroke="none" 
	d="
M203.816376,65.081581 
	C201.362183,51.266750 196.060272,38.708199 186.722305,28.142111 
	C173.592270,13.285248 157.028488,5.177158 137.138626,5.071164 
	C94.186508,4.842268 51.232288,4.974431 8.279263,5.086071 
	C6.770654,5.089992 5.265566,6.448634 3.314029,7.480351 
	C2.246148,7.523221 1.623074,7.261611 1.000000,7.000000 
	C1.000000,5.002228 1.000000,3.004457 1.000000,1.005014 
	C74.915321,1.003343 148.830643,1.003343 223.000000,1.003343 
	C223.000000,55.687298 223.000000,110.374992 222.623108,165.544769 
	C221.063263,167.395813 219.880310,168.764771 218.697357,170.133728 
	C217.038925,164.507126 215.884293,158.668030 213.619110,153.297333 
	C208.620392,141.445496 201.480759,131.056839 190.694824,123.578224 
	C189.745834,122.920219 188.770523,122.295059 187.866043,121.580444 
	C187.496353,121.288361 187.282684,120.798790 187.474396,121.068016 
	C192.256958,111.273621 196.840408,101.886978 201.905533,92.389862 
	C203.012207,92.657188 203.637222,93.034996 204.262238,93.412796 
	C204.297272,92.736252 204.574783,91.938499 204.311234,91.411194 
	C203.901840,90.592186 203.124161,89.957275 202.502625,89.244324 
	C202.842407,86.725128 203.182190,84.205925 204.121094,81.337532 
	C205.766159,80.428574 207.693710,79.904297 207.717911,79.303421 
	C207.902969,74.704193 208.056503,70.050903 207.530197,65.494080 
	C207.168472,62.362350 205.241989,63.787239 203.816376,65.081581 
z"/>
<path fill="#01B684" opacity="1.000000" stroke="none" 
	d="
M4.103616,188.000748 
	C2.825914,182.684860 3.753601,178.449066 9.253022,175.849426 
	C11.576489,174.751114 13.490376,172.786346 16.020287,170.927002 
	C16.721937,170.504333 16.875677,170.286682 16.911362,169.985596 
	C18.195951,168.933456 19.480541,167.881302 21.258318,166.498413 
	C22.894161,165.155991 24.036821,164.144333 25.179482,163.132660 
	C25.179482,163.132660 25.087574,163.108475 25.384047,163.240768 
	C26.871012,162.618347 28.061504,161.863632 29.251997,161.108917 
	C30.955362,160.093231 32.658726,159.077545 34.760201,158.299713 
	C35.308403,158.783875 35.523499,158.941406 35.803600,159.010208 
	C35.917084,180.784561 36.028522,202.558914 36.145897,224.333237 
	C36.167404,228.323532 36.213020,232.313705 36.245773,237.001556 
	C36.309467,238.087341 36.374886,238.475479 36.440308,238.863617 
	C36.236649,241.980835 36.032993,245.098038 35.770519,249.115494 
	C31.559853,249.115494 27.351244,249.118561 23.142645,249.114471 
	C20.171873,249.111572 17.201113,249.092010 14.230347,249.092255 
	C9.555169,249.092636 4.546175,250.146835 1.256318,245.510956 
	C1.000000,245.250000 1.000000,244.500000 1.271945,243.872009 
	C2.300367,242.868271 3.650841,241.770325 3.705126,240.611649 
	C3.889037,236.686142 3.614108,232.739151 3.625360,228.433975 
	C3.658882,227.051514 3.581551,226.035431 3.573335,224.488815 
	C2.761633,223.638840 1.880816,223.319427 1.000000,223.000000 
	C1.000000,221.933334 1.000000,220.866653 1.275839,219.899628 
	C2.310403,218.724243 3.615589,217.495255 3.727618,216.165741 
	C4.095746,211.796921 4.031042,207.391647 4.529636,203.001190 
	C10.048741,202.587189 12.024843,200.488190 11.997915,195.490982 
	C11.971933,190.669327 9.646900,188.463303 4.103616,188.000748 
z"/>
<path fill="#FCFCFC" opacity="1.000000" stroke="none" 
	d="
M216.616348,197.834991 
	C216.985626,195.795166 217.354889,193.755341 218.239990,191.404022 
	C220.170547,191.395020 221.585281,191.697510 223.000000,192.000000 
	C223.000000,211.930862 223.000000,231.861710 223.000000,252.000000 
	C200.979538,252.000000 178.958435,252.000000 156.599121,251.702637 
	C156.507446,250.587021 156.753983,249.768768 157.321289,248.792099 
	C158.086929,248.477036 158.531784,248.320404 158.976639,248.163788 
	C183.785217,245.298553 200.466263,231.420395 211.257980,209.569809 
	C212.206207,207.649857 213.105408,205.705688 214.483368,203.386536 
	C216.200058,202.421280 217.460754,201.842270 218.721466,201.263275 
	C218.019760,200.120514 217.318054,198.977753 216.616348,197.834991 
z"/>
<path fill="#000A26" opacity="1.000000" stroke="none" 
	d="
M158.771011,247.864929 
	C158.531784,248.320404 158.086929,248.477036 156.865555,248.709412 
	C154.167633,248.898376 152.203354,248.799759 150.335510,249.177689 
	C147.930817,249.664200 147.927322,250.795227 150.000000,252.000000 
	C143.645599,252.000000 137.291214,252.000000 130.996689,251.584625 
	C129.938324,250.625305 128.820068,250.081375 127.701813,249.537445 
	C127.801208,250.358292 127.900604,251.179153 128.000000,252.000000 
	C120.979050,252.000000 113.958107,252.000000 106.468582,252.000000 
	C106.349701,251.436432 106.699409,250.872864 107.049118,250.309296 
	C105.997620,249.889221 104.946129,249.469131 103.472092,248.915741 
	C104.065125,248.189056 105.077652,247.084564 106.096733,247.078491 
	C123.135254,246.976883 140.174606,247.008347 157.213715,247.040634 
	C157.664612,247.041489 158.114838,247.383270 158.771011,247.864929 
z"/>
<path fill="#01BD89" opacity="1.000000" stroke="none" 
	d="
M3.990892,188.434021 
	C9.646900,188.463303 11.971933,190.669327 11.997915,195.490982 
	C12.024843,200.488190 10.048741,202.587189 4.402917,202.576447 
	C3.419392,200.764740 4.241341,197.662811 1.000000,200.000000 
	C1.000000,199.250000 1.000000,198.500000 1.000000,197.375000 
	C3.123568,199.290100 3.595117,197.591507 3.732170,195.766937 
	C3.904230,193.476318 3.840270,191.167969 3.990892,188.434021 
z"/>
<path fill="#F3F3F5" opacity="1.000000" stroke="none" 
	d="
M223.000000,191.531342 
	C221.585281,191.697510 220.170547,191.395020 218.394440,191.047195 
	C218.201294,184.348892 218.369553,177.695923 218.617584,170.588333 
	C219.880310,168.764771 221.063263,167.395813 222.623108,166.013428 
	C223.000000,174.354233 223.000000,182.708466 223.000000,191.531342 
z"/>
<path fill="#F6F6F8" opacity="1.000000" stroke="none" 
	d="
M3.556515,106.523384 
	C3.616252,117.041817 3.732481,127.560738 3.642843,138.077896 
	C3.634460,139.061493 2.325135,140.034012 1.309920,140.505844 
	C1.000000,139.555557 1.000000,139.111099 1.211373,138.179382 
	C1.281831,137.128082 1.140916,136.564041 1.000000,136.000000 
	C1.000000,127.645767 1.000000,119.291534 1.460120,109.916542 
	C2.465665,108.104980 3.011091,107.314186 3.556515,106.523384 
z"/>
<path fill="#F6F6F8" opacity="1.000000" stroke="none" 
	d="
M1.000000,7.468649 
	C1.623074,7.261611 2.246148,7.523221 3.201900,7.844604 
	C3.615105,14.959093 3.695632,22.013809 3.282932,29.702038 
	C2.874897,31.101030 2.960090,31.866507 3.045283,32.631985 
	C2.615809,32.813370 2.186334,32.994755 1.378430,32.588070 
	C1.000000,23.979099 1.000000,15.958199 1.000000,7.468649 
z"/>
<path fill="#FDFEFE" opacity="1.000000" stroke="none" 
	d="
M1.000000,200.468277 
	C4.241341,197.662811 3.419392,200.764740 4.005919,202.575653 
	C4.031042,207.391647 4.095746,211.796921 3.727618,216.165741 
	C3.615589,217.495255 2.310403,218.724243 1.275839,219.499634 
	C1.000000,212.978851 1.000000,206.957703 1.000000,200.468277 
z"/>
<path fill="#F6F6F8" opacity="1.000000" stroke="none" 
	d="
M1.225680,71.444748 
	C2.031042,71.620613 3.536268,71.782692 3.540043,71.974350 
	C3.652641,77.689323 3.647846,83.407936 3.518818,89.122742 
	C3.511794,89.433846 2.270845,89.717087 1.302137,89.506653 
	C1.000000,84.310745 1.000000,79.621490 1.265034,74.202652 
	C1.428606,72.796967 1.327142,72.120865 1.225680,71.444748 
z"/>
<path fill="#FDFEFE" opacity="1.000000" stroke="none" 
	d="
M3.514506,228.800369 
	C3.614108,232.739151 3.889037,236.686142 3.705126,240.611649 
	C3.650841,241.770325 2.300367,242.868271 1.271945,243.497009 
	C1.000000,238.975449 1.000000,234.950912 1.315027,230.318329 
	C2.258205,229.406982 2.886356,229.103668 3.514506,228.800369 
z"/>
<path fill="#FDFDFD" opacity="1.000000" stroke="none" 
	d="
M150.428467,252.000000 
	C147.927322,250.795227 147.930817,249.664200 150.335510,249.177689 
	C152.203354,248.799759 154.167633,248.898376 156.544800,248.867859 
	C156.753983,249.768768 156.507446,250.587021 156.130463,251.702637 
	C154.285645,252.000000 152.571289,252.000000 150.428467,252.000000 
z"/>
<path fill="#E6E7EA" opacity="1.000000" stroke="none" 
	d="
M3.684511,106.379318 
	C3.011091,107.314186 2.465665,108.104980 1.460120,109.447891 
	C1.000000,107.299988 1.000000,104.599968 1.000000,101.449982 
	C5.415179,100.876793 3.124640,104.356064 3.684511,106.379318 
z"/>
<path fill="#EFF9F7" opacity="1.000000" stroke="none" 
	d="
M3.625360,228.433975 
	C2.886356,229.103668 2.258205,229.406982 1.315027,229.855133 
	C1.000000,229.555557 1.000000,229.111099 1.147069,228.233566 
	C1.196092,227.533646 1.098045,227.266830 0.999999,227.000000 
	C1.000000,226.555557 1.000000,226.111099 1.416373,225.336761 
	C2.389904,225.011032 2.947063,225.015198 3.504221,225.019363 
	C3.581551,226.035431 3.658882,227.051514 3.625360,228.433975 
z"/>
<path fill="#FDFDFD" opacity="1.000000" stroke="none" 
	d="
M128.333328,252.000000 
	C127.900604,251.179153 127.801208,250.358292 127.701813,249.537445 
	C128.820068,250.081375 129.938324,250.625305 130.528290,251.584625 
	C129.555557,252.000000 129.111099,252.000000 128.333328,252.000000 
z"/>
<path fill="#FDFEFE" opacity="1.000000" stroke="none" 
	d="
M3.573335,224.488815 
	C2.947063,225.015198 2.389904,225.011032 1.416373,225.003418 
	C1.000000,224.555557 1.000000,224.111099 1.000000,223.333328 
	C1.880816,223.319427 2.761633,223.638840 3.573335,224.488815 
z"/>
<path fill="#FDFEFE" opacity="1.000000" stroke="none" 
	d="
M1.000000,37.333328 
	C1.816527,36.965508 2.633054,36.931015 3.449581,36.896523 
	C2.900393,37.944611 2.351206,38.992695 1.401009,39.520390 
	C1.000000,38.555553 1.000000,38.111111 1.000000,37.333328 
z"/>
<path fill="#FDFEFE" opacity="1.000000" stroke="none" 
	d="
M1.000000,53.333332 
	C1.814471,52.966106 2.628941,52.932213 3.443412,52.898315 
	C2.895801,53.945530 2.348190,54.992744 1.400290,55.519981 
	C1.000000,54.555553 1.000000,54.111111 1.000000,53.333332 
z"/>
<path fill="#FDFEFE" opacity="1.000000" stroke="none" 
	d="
M1.000000,136.333328 
	C1.140916,136.564041 1.281831,137.128082 1.211373,137.846069 
	C1.000000,137.555557 1.000000,137.111099 1.000000,136.333328 
z"/>
<path fill="#FDFEFE" opacity="1.000000" stroke="none" 
	d="
M1.150826,71.576080 
	C1.327142,72.120865 1.428606,72.796967 1.265034,73.736542 
	C1.000000,73.555557 1.000000,73.111107 1.000000,72.333328 
	C1.000000,72.000000 1.075973,71.707397 1.150826,71.576080 
z"/>
<path fill="#FDFEFE" opacity="1.000000" stroke="none" 
	d="
M0.999999,227.250000 
	C1.098045,227.266830 1.196092,227.533646 1.147069,227.900238 
	C1.000000,228.000000 1.000000,227.500000 0.999999,227.250000 
z"/>
<path fill="#FDFEFE" opacity="1.000000" stroke="none" 
	d="
M1.000000,68.250000 
	C1.382169,68.036957 1.764338,68.073914 2.146507,68.110870 
	C2.059973,68.501953 1.973439,68.893028 1.443453,69.142059 
	C1.000000,69.000000 1.000000,68.500000 1.000000,68.250000 
z"/>
<path fill="#000A28" opacity="1.000000" stroke="none" 
	d="
M36.224007,39.090221 
	C36.213203,39.648026 36.202400,40.205830 36.169235,41.252426 
	C36.228882,42.064587 36.310894,42.387955 36.392902,42.711323 
	C36.309998,66.510010 36.238544,90.308746 36.132549,114.107323 
	C36.115524,117.929100 35.944218,121.750183 35.524181,125.828629 
	C34.804058,124.225586 34.061043,122.366539 34.055470,120.505280 
	C33.975002,93.650536 33.993645,66.795494 34.361801,39.478188 
	C35.231396,39.040634 35.727703,39.065430 36.224007,39.090221 
z"/>
<path fill="#F8F9F9" opacity="1.000000" stroke="none" 
	d="
M102.996033,106.993286 
	C103.467583,106.377968 103.914207,105.250053 104.414497,105.225731 
	C110.126915,104.947937 115.846794,104.800224 121.566086,104.693382 
	C128.879028,104.556763 136.065430,104.675110 143.486084,103.597069 
	C151.201370,102.476227 154.851105,97.662407 159.640182,93.494339 
	C161.814484,91.601982 162.634094,91.844368 163.085175,94.923813 
	C157.092468,103.469162 148.938324,107.666809 138.185059,107.910194 
	C134.654892,107.731819 131.814133,107.947464 128.973373,108.163116 
	C128.535278,108.249077 128.097168,108.335037 127.127823,107.998383 
	C118.729721,107.381607 110.862877,107.187447 102.996033,106.993286 
z"/>
<path fill="#07122A" opacity="1.000000" stroke="none" 
	d="
M117.982376,141.515213 
	C115.613403,141.944351 113.237518,142.009644 110.123619,141.726578 
	C104.231155,141.689911 101.943100,139.525238 102.935509,134.205780 
	C103.119148,133.221466 102.441833,132.076523 102.161896,131.005722 
	C102.107162,130.560287 102.052422,130.114853 102.081482,129.340912 
	C102.658875,129.013336 103.327591,128.803619 103.619942,129.046631 
	C108.433167,133.047791 113.198997,137.105972 117.982376,141.515213 
z"/>
<path fill="#F7F7F8" opacity="1.000000" stroke="none" 
	d="
M101.849350,229.576447 
	C101.175430,231.532135 100.167534,233.032120 100.080833,234.583603 
	C99.845322,238.798050 100.000000,243.034271 100.000000,248.697113 
	C97.850044,245.881241 96.469772,244.379105 95.474518,242.654724 
	C94.882301,241.628677 94.260780,239.590302 94.734367,239.136765 
	C99.738640,234.344086 97.540146,228.249222 97.974129,222.659454 
	C98.128517,220.670944 97.998848,218.660370 97.998848,216.659866 
	C98.411774,216.660400 98.824699,216.660934 99.237633,216.661469 
	C99.846489,218.696274 100.455345,220.731094 101.416290,222.878418 
	C101.824104,225.042038 101.879829,227.093140 101.849350,229.576447 
z"/>
<path fill="#040726" opacity="1.000000" stroke="none" 
	d="
M103.250305,216.163651 
	C115.848015,215.695160 128.735764,215.533600 141.623550,215.375946 
	C145.099960,215.333420 148.576508,215.302795 152.514282,215.340912 
	C151.897720,215.943253 150.822281,216.925385 149.741638,216.931152 
	C134.808533,217.010941 119.874687,216.960724 104.941116,216.915634 
	C104.473755,216.914215 104.007256,216.626358 103.250305,216.163651 
z"/>
<path fill="#EEF0F2" opacity="1.000000" stroke="none" 
	d="
M102.761581,107.154114 
	C110.862877,107.187447 118.729721,107.381607 126.811768,107.869781 
	C118.957413,108.362801 110.887840,108.561798 102.403000,108.816200 
	C102.167534,108.352715 102.347336,107.833824 102.761581,107.154114 
z"/>
<path fill="#F3F4F5" opacity="1.000000" stroke="none" 
	d="
M203.722809,65.535622 
	C205.241989,63.787239 207.168472,62.362350 207.530197,65.494080 
	C208.056503,70.050903 207.902969,74.704193 207.717911,79.303421 
	C207.693710,79.904297 205.766159,80.428574 204.291901,80.989647 
	C203.785477,75.990524 203.707352,70.990097 203.722809,65.535622 
z"/>
<path fill="#010D29" opacity="1.000000" stroke="none" 
	d="
M36.577499,39.073448 
	C35.727703,39.065430 35.231396,39.040634 34.362198,39.009758 
	C31.027855,37.100666 33.075970,36.047886 34.818439,36.168785 
	C38.473488,36.422386 42.083424,37.326092 45.847290,38.309475 
	C42.965458,38.789600 39.948227,38.923134 36.577499,39.073448 
z"/>
<path fill="#EAEBEE" opacity="1.000000" stroke="none" 
	d="
M168.696915,85.834167 
	C165.554718,83.821091 166.236313,79.632866 170.190247,77.965179 
	C170.013519,80.492096 169.459091,83.027451 168.696915,85.834167 
z"/>
<path fill="#EAEBEE" opacity="1.000000" stroke="none" 
	d="
M170.738144,69.289131 
	C165.315536,69.494118 164.977966,68.466965 168.567810,62.217278 
	C169.513885,64.321968 170.161423,66.604263 170.738144,69.289131 
z"/>
<path fill="#F3F3F5" opacity="1.000000" stroke="none" 
	d="
M216.277283,197.929108 
	C217.318054,198.977753 218.019760,200.120514 218.721466,201.263275 
	C217.460754,201.842270 216.200058,202.421280 214.560577,203.004517 
	C214.767258,201.346909 215.352737,199.685074 216.277283,197.929108 
z"/>
<path fill="#EEF0F2" opacity="1.000000" stroke="none" 
	d="
M129.383057,108.309402 
	C131.814133,107.947464 134.654892,107.731819 137.764526,107.801559 
	C135.286514,108.209854 132.539627,108.332771 129.383057,108.309402 
z"/>
<path fill="#010D29" opacity="1.000000" stroke="none" 
	d="
M116.902740,38.267036 
	C111.692886,38.722107 106.253395,38.788651 100.348709,38.743378 
	C105.480034,38.380539 111.076576,38.129524 116.902740,38.267036 
z"/>
<path fill="#010D29" opacity="1.000000" stroke="none" 
	d="
M62.868149,38.332634 
	C61.271217,38.725250 59.557941,38.795227 57.429955,38.748566 
	C58.927437,38.424618 60.839619,38.217308 62.868149,38.332634 
z"/>
<path fill="#F3F4F5" opacity="1.000000" stroke="none" 
	d="
M202.293182,89.534927 
	C203.124161,89.957275 203.901840,90.592186 204.311234,91.411194 
	C204.574783,91.938499 204.297272,92.736252 204.262238,93.412796 
	C203.637222,93.034996 203.012207,92.657188 202.113678,92.101196 
	C201.921341,91.223846 202.002548,90.524681 202.293182,89.534927 
z"/>
<path fill="#010D29" opacity="1.000000" stroke="none" 
	d="
M136.934845,38.305832 
	C135.986252,38.738243 134.854782,38.809349 133.310822,38.766224 
	C134.182877,38.416172 135.467422,38.180351 136.934845,38.305832 
z"/>
<path fill="#091A3A" opacity="1.000000" stroke="none" 
	d="
M115.777390,7.371996 
	C116.008812,7.324903 116.141388,7.383063 116.273956,7.441225 
	C116.075478,7.453234 115.877007,7.465242 115.777390,7.371996 
z"/>
<path fill="#FDFEFE" opacity="1.000000" stroke="none" 
	d="
M3.350549,32.413528 
	C2.960090,31.866507 2.874897,31.101030 3.162448,30.098167 
	C3.575400,30.638882 3.615608,31.416979 3.350549,32.413528 
z"/>
<path fill="#091A3A" opacity="1.000000" stroke="none" 
	d="
M16.777576,7.372086 
	C17.008816,7.325056 17.141268,7.383167 17.273722,7.441279 
	C17.075413,7.453262 16.877102,7.465244 16.777576,7.372086 
z"/>
<path fill="#010D29" opacity="1.000000" stroke="none" 
	d="
M90.956024,38.327667 
	C90.608002,38.713505 90.120972,38.787045 89.276855,38.750908 
	C89.552185,38.432617 90.184601,38.223995 90.956024,38.327667 
z"/>
<path fill="#01B683" opacity="1.000000" stroke="none" 
	d="
M84.025864,207.996948 
	C84.076378,210.702118 84.126900,213.407272 83.735321,216.639984 
	C81.585510,219.347458 80.725853,221.424774 83.999336,223.001877 
	C84.049500,226.034775 84.099663,229.067657 83.686615,232.652191 
	C81.607674,237.255737 80.447380,241.278793 83.970528,245.005356 
	C85.194176,251.210678 80.380455,248.580322 77.404205,249.314087 
	C70.643524,249.296890 64.280167,249.186188 57.180111,248.736053 
	C55.180660,248.317657 53.917908,248.238708 52.655151,248.159760 
	C52.571140,247.988327 52.487133,247.816879 52.910172,247.346222 
	C55.835674,245.948654 58.382504,245.052536 60.603252,243.642761 
	C61.385300,243.146301 61.734684,241.334442 61.561611,240.236679 
	C61.476040,239.693878 59.741364,239.044479 58.777676,239.081970 
	C56.684631,239.163376 54.607548,239.655136 52.523941,239.979141 
	C52.388630,239.232880 52.253319,238.486618 52.123367,237.043945 
	C52.050270,235.895782 51.971821,235.444016 51.893368,234.992264 
	C51.993240,218.736084 52.116550,202.479996 52.185650,186.223679 
	C52.242085,172.946762 52.098679,159.666550 52.395748,146.395676 
	C52.441795,144.338654 54.372650,142.323837 55.972084,140.110901 
	C56.772011,139.797607 56.937233,139.588318 57.007954,139.304428 
	C61.712898,135.853897 66.417839,132.403351 71.525642,128.939133 
	C71.928505,128.925446 72.068520,129.067566 72.047852,129.463089 
	C72.845139,131.663544 73.235756,133.933792 74.578651,135.167160 
	C76.730980,137.143936 79.514175,138.433838 82.025986,140.481110 
	C82.031036,149.958969 82.040840,158.969757 81.758629,168.281387 
	C81.311111,176.343521 81.076447,184.104584 81.053406,191.866272 
	C81.047325,193.915283 81.694252,195.966202 82.033089,198.463486 
	C82.873886,201.899384 80.092705,205.687485 84.025864,207.996948 
z"/>
<path fill="#F7F7F8" opacity="1.000000" stroke="none" 
	d="
M96.999390,125.000000 
	C96.106415,123.094513 95.213448,121.189026 94.438278,119.534912 
	C95.697754,117.475319 96.841171,115.605507 97.989700,113.367691 
	C98.173050,111.871216 98.351295,110.742729 98.529533,109.614250 
	C99.020241,109.640755 99.510956,109.667252 100.001671,109.693756 
	C100.001671,117.150070 100.001671,124.606392 100.020248,132.769562 
	C100.189903,133.727020 100.340973,133.977615 100.492050,134.228210 
	C100.651596,133.823257 100.811142,133.418320 100.970688,133.013367 
	C100.970688,133.013367 101.371124,132.994781 101.658203,133.437256 
	C101.963570,136.587021 101.981850,139.294296 102.000130,142.001587 
	C99.997574,141.804092 97.995010,141.606583 95.992455,141.409073 
	C96.335014,139.746597 96.633591,138.073349 97.037453,136.425903 
	C97.262123,135.509415 97.662239,134.635925 97.979897,132.969025 
	C97.650795,129.796646 97.325096,127.398323 96.999390,125.000000 
z"/>
<path fill="#02BB89" opacity="1.000000" stroke="none" 
	d="
M52.401794,240.371918 
	C54.607548,239.655136 56.684631,239.163376 58.777676,239.081970 
	C59.741364,239.044479 61.476040,239.693878 61.561611,240.236679 
	C61.734684,241.334442 61.385300,243.146301 60.603252,243.642761 
	C58.382504,245.052536 55.835674,245.948654 52.984211,247.069550 
	C52.460682,244.982971 52.370167,242.873840 52.401794,240.371918 
z"/>
<path fill="#01B683" opacity="1.000000" stroke="none" 
	d="
M71.858612,128.854263 
	C74.316437,126.853607 76.844147,124.924118 80.068314,122.909744 
	C81.567329,124.788643 82.369865,126.752434 83.033981,128.974609 
	C82.611603,129.494583 82.327652,129.756165 81.675430,129.966553 
	C78.227615,129.632751 75.148071,129.350159 72.068520,129.067566 
	C72.068520,129.067566 71.928505,128.925446 71.858612,128.854263 
z"/>
<path fill="#EFF9F7" opacity="1.000000" stroke="none" 
	d="
M83.172409,128.716232 
	C82.369865,126.752434 81.567329,124.788643 80.373665,122.741852 
	C81.222939,120.665504 82.496536,118.797401 85.035469,121.671371 
	C85.035889,124.088905 84.941422,126.179573 84.351959,128.552246 
	C83.628777,128.794907 83.400589,128.755569 83.172409,128.716232 
z"/>
<path fill="#081736" opacity="1.000000" stroke="none" 
	d="
M102.440285,142.069412 
	C101.981850,139.294296 101.963570,136.587021 101.858627,133.436584 
	C101.840271,132.548538 101.908562,132.103607 102.069374,131.332214 
	C102.441833,132.076523 103.119148,133.221466 102.935509,134.205780 
	C101.943100,139.525238 104.231155,141.689911 109.686966,141.631165 
	C107.619034,141.968491 105.249741,142.052872 102.440285,142.069412 
z"/>
<path fill="#EFF9F7" opacity="1.000000" stroke="none" 
	d="
M24.793903,163.101868 
	C24.036821,164.144333 22.894161,165.155991 21.393520,166.214935 
	C22.159798,165.198502 23.284061,164.134781 24.793903,163.101868 
z"/>
<path fill="#EFF9F7" opacity="1.000000" stroke="none" 
	d="
M28.852053,161.076675 
	C28.061504,161.863632 26.871012,162.618347 25.398546,163.286011 
	C26.228418,162.480789 27.340263,161.762604 28.852053,161.076675 
z"/>
<path fill="#EFF9F7" opacity="1.000000" stroke="none" 
	d="
M51.564350,234.997757 
	C51.971821,235.444016 52.050270,235.895782 52.015297,236.677338 
	C51.112453,236.704926 50.323036,236.402710 49.533619,236.100494 
	C50.100857,235.734741 50.668095,235.369003 51.564350,234.997757 
z"/>
<path fill="#EFF9F7" opacity="1.000000" stroke="none" 
	d="
M36.832024,238.898651 
	C36.374886,238.475479 36.309467,238.087341 36.340866,237.416565 
	C37.414360,237.243729 38.391037,237.353531 39.367714,237.463348 
	C39.398643,237.729401 39.429573,237.995453 39.460506,238.261505 
	C38.714916,238.485565 37.969330,238.709625 36.832024,238.898651 
z"/>
<path fill="#E3E5E9" opacity="1.000000" stroke="none" 
	d="
M36.777824,42.780251 
	C36.310894,42.387955 36.228882,42.064587 36.268333,41.513695 
	C37.339520,41.286167 38.289242,41.286167 39.238968,41.286167 
	C39.294430,41.555145 39.349888,41.824127 39.405350,42.093105 
	C38.657818,42.345127 37.910282,42.597153 36.777824,42.780251 
z"/>
<path fill="#22C395" opacity="1.000000" stroke="none" 
	d="
M52.854248,248.511780 
	C53.917908,248.238708 55.180660,248.317657 56.717411,248.654846 
	C55.678719,248.896683 54.366028,248.880249 52.854248,248.511780 
z"/>
<path fill="#FDFDFD" opacity="1.000000" stroke="none" 
	d="
M100.728874,133.008652 
	C100.811142,133.418320 100.651596,133.823257 100.492050,134.228210 
	C100.340973,133.977615 100.189903,133.727020 100.021088,133.238220 
	C100.003357,133.000000 100.487061,133.003937 100.728874,133.008652 
z"/>
<path fill="#EFF9F7" opacity="1.000000" stroke="none" 
	d="
M16.727932,170.047333 
	C16.875677,170.286682 16.721937,170.504333 16.244247,170.657654 
	C16.137947,170.425858 16.306664,170.236649 16.727932,170.047333 
z"/>
<path fill="#1CC396" opacity="1.000000" stroke="none" 
	d="
M35.901463,158.750504 
	C35.523499,158.941406 35.308403,158.783875 35.092857,158.343903 
	C35.027401,158.150223 34.964630,157.844803 35.223858,157.823563 
	C35.656723,157.846802 35.830360,157.891266 36.003998,157.935745 
	C36.002441,158.120758 36.000885,158.305786 35.901463,158.750504 
z"/>
<path fill="#EFF9F7" opacity="1.000000" stroke="none" 
	d="
M35.945297,157.776291 
	C35.830360,157.891266 35.656723,157.846802 35.249710,157.669815 
	C35.306423,157.563828 35.596508,157.590332 35.945297,157.776291 
z"/>
<path fill="#22C395" opacity="1.000000" stroke="none" 
	d="
M56.794228,139.326065 
	C56.937233,139.588318 56.772011,139.797607 56.313835,139.983856 
	C56.147560,139.723053 56.302601,139.493805 56.794228,139.326065 
z"/>
<path fill="#01BD88" opacity="1.000000" stroke="none" 
	d="
M72.047852,129.463089 
	C75.148071,129.350159 78.227615,129.632751 81.674332,130.314880 
	C82.699875,131.474686 83.358261,132.234970 84.016640,132.995255 
	C84.055908,135.041397 84.095177,137.087555 83.731201,139.566055 
	C82.895538,140.003632 82.463135,140.008835 82.030724,140.014053 
	C79.514175,138.433838 76.730980,137.143936 74.578651,135.167160 
	C73.235756,133.933792 72.845139,131.663544 72.047852,129.463089 
z"/>
<path fill="#01B988" opacity="1.000000" stroke="none" 
	d="
M82.041321,198.016251 
	C81.694252,195.966202 81.047325,193.915283 81.053406,191.866272 
	C81.076447,184.104584 81.311111,176.343521 82.085007,168.283966 
	C83.139870,167.989899 83.576355,167.994049 84.012833,167.998199 
	C84.061707,177.689987 84.110573,187.381790 83.753143,197.537140 
	C82.911674,198.005890 82.476494,198.011078 82.041321,198.016251 
z"/>
<path fill="#22C395" opacity="1.000000" stroke="none" 
	d="
M84.126709,167.541199 
	C83.576355,167.994049 83.139870,167.989899 82.377014,167.983154 
	C82.040840,158.969757 82.031036,149.958969 82.025986,140.481110 
	C82.463135,140.008835 82.895538,140.003632 83.652573,139.998352 
	C84.064995,149.026947 84.152794,158.055573 84.126709,167.541199 
z"/>
<path fill="#FEFEFE" opacity="1.000000" stroke="none" 
	d="
M96.626572,124.992798 
	C97.325096,127.398323 97.650795,129.796646 97.985504,132.597183 
	C91.237915,132.834351 89.912552,130.850342 91.786613,123.446907 
	C93.283882,123.962631 94.768822,124.474106 96.626572,124.992798 
z"/>
<path fill="#22C395" opacity="1.000000" stroke="none" 
	d="
M84.085251,244.556122 
	C80.447380,241.278793 81.607674,237.255737 83.607697,233.100586 
	C84.061325,236.700516 84.130653,240.403702 84.085251,244.556122 
z"/>
<path fill="#22C395" opacity="1.000000" stroke="none" 
	d="
M82.033089,198.463486 
	C82.476494,198.011078 82.911674,198.005890 83.673660,198.000122 
	C84.085915,201.037125 84.171364,204.074722 84.141342,207.554642 
	C80.092705,205.687485 82.873886,201.899384 82.033089,198.463486 
z"/>
<path fill="#22C395" opacity="1.000000" stroke="none" 
	d="
M84.114227,222.584244 
	C80.725853,221.424774 81.585510,219.347458 83.654053,217.084366 
	C84.086296,218.723022 84.157700,220.444809 84.114227,222.584244 
z"/>
<path fill="#22C395" opacity="1.000000" stroke="none" 
	d="
M84.134399,132.604004 
	C83.358261,132.234970 82.699875,131.474686 82.042595,130.366089 
	C82.327652,129.756165 82.611603,129.494583 83.033981,128.974609 
	C83.400589,128.755569 83.628777,128.794907 84.198151,128.901550 
	C84.443611,130.050156 84.347885,131.131470 84.134399,132.604004 
z"/>
</svg>