<svg width="32" height="32" viewBox="0 0 32 32" xmlns="http://www.w3.org/2000/svg">
    <!-- Le "B" en bleu marine, sans fond -->
    <path d="M6 4 L6 28 L18 28 Q24 28 24 23 Q24 19.5 21 18 Q24 16.5 24 13 Q24 4 18 4 Z M11 9 L17 9 Q19 9 19 12 Q19 15 17 15 L11 15 Z M11 19 L17 19 Q19.5 19 19.5 21.5 Q19.5 24 17 24 L11 24 Z"
          fill="#0A1733"/>

    <!-- 3 bâtons verts en bas à gauche, façon graphique -->
    <rect x="7.5" y="20" width="1.8" height="4" fill="#00B383" rx="0.3"/>
    <rect x="10" y="17" width="1.8" height="7" fill="#00B383" rx="0.3"/>
    <rect x="12.5" y="14" width="1.8" height="10" fill="#00B383" rx="0.3"/>
</svg>
